<svg version="1.1" xmlns="http://www.w3.org/2000/svg" xmlns:xlink="http://www.w3.org/1999/xlink" x="0px" y="0px"
	 viewBox="0 0 129 54" enable-background="new 0 0 129 54" xml:space="preserve">
<g>
	<path fill-rule="evenodd" clip-rule="evenodd" d="M58.8,38c0,5.9,0.8,10.4,6.8,10.4c1,0,2.1-0.1,3.6-0.8l-0.5-4.2
		c-0.2,0-0.4,0.1-0.5,0.1c-3,0-3.1-1.7-3.1-5.5V8h-6.3V38z"/>
	<polygon fill-rule="evenodd" clip-rule="evenodd" points="90.6,47.7 98.5,47.7 85.5,34.6 98.6,21.5 90.9,21.5 79.7,33 79.7,8 
		73.4,8 73.4,47.7 79.7,47.7 79.7,36.6 	"/>
	<rect x="47.7" y="21.5" fill-rule="evenodd" clip-rule="evenodd" width="6.4" height="26.3"/>
	<path fill-rule="evenodd" clip-rule="evenodd" d="M18.7,48.4c1.3,0,2.7-0.3,4.5-0.9l-0.8-4.9c-0.6,0.1-1.3,0.2-1.9,0.2
		c-3.1,0-3.4-2.7-3.4-11.1v-5.1h5.7v-4.9h-5.7v-9.4h-6.3v9.4H7.2v4.9h3.6v5.3C10.8,42.7,10.8,48.4,18.7,48.4z"/>
	<path fill-rule="evenodd" clip-rule="evenodd" d="M25.7,34.6c0,7.7,6.2,13.9,13.9,13.9c7.7,0,11-6.2,11-13.9
		c0-7.7-3.4-13.9-11-13.9C31.9,20.8,25.7,27,25.7,34.6z M31.4,34.6c0-4.5,3.7-8.2,8.2-8.2c4.5,0,8.2,3.7,8.2,8.2
		c0,4.5-3.7,8.2-8.2,8.2C35,42.8,31.4,39.1,31.4,34.6z"/>
	<path fill-rule="evenodd" clip-rule="evenodd" class="the-o" d="M97.5,34.6c0,7.7,6.2,13.9,13.9,13.9c7.7,0,13.9-6.2,13.9-13.9
		c0-7.7-6.2-13.9-13.9-13.9C103.7,20.8,97.5,27,97.5,34.6z M103.2,34.6c0-4.5,3.7-8.2,8.2-8.2c4.5,0,8.2,3.7,8.2,8.2
		c0,4.5-3.7,8.2-8.2,8.2C106.8,42.8,103.2,39.1,103.2,34.6z"/>
</g>
</svg>
